<?xml version="1.0" encoding="UTF-8" standalone="no"?>
<svg
   id="Vrstva_1"
   data-name="Vrstva 1"
   viewBox="0 0 402.2 80.1"
   version="1.1"
   xmlns="http://www.w3.org/2000/svg"
   xmlns:svg="http://www.w3.org/2000/svg">
  <defs
     id="defs7">
    <style
       id="style2">
      .cls-1 {
        fill: #fff;
      }

      .cls-2 {
        clip-path: url(#clippath);
      }

      .cls-3 {
        fill: #009a6d;
      }

      .cls-4 {
        fill: none;
      }

      .cls-5 {
        fill: #232120;
      }
    </style>
    <clipPath
       id="clippath">
      <rect
         class="cls-4"
         width="402.2"
         height="80.1"
         id="rect4" />
    </clipPath>
  </defs>
  <g
     class="cls-2"
     clip-path="url(#clippath)"
     id="g17">
    <path
       class="cls-5"
       d="M389.6,37.6l-2.8,7.9-3-7.9-4.4-10.4h-8.8v.4l12.4,27.3-.7,1.8c-1.4,3.7-2.6,4.7-5.1,4.7s-2.1-.2-3.3-.6l-1.5,6.4c1.7,.7,3.6,1.2,5.7,1.2,6.4,0,9.3-2.6,12.5-10.7l11.8-30.2v-.4h-8.6l-4,10.5Zm-29.5,4c4.1-2.9,6.2-8,6.3-14.4h-8.1c0,7.3-2.8,10.1-7.9,10.1h-1.6V14.2h-8.3V55.7h8.3v-11.3h1.5c.9,0,1.8,0,2.6-.2l6.5,11.5h8.9v-.4l-8.2-13.7Zm-43.6-7.8v10.2c0,8.5,4,12.2,10.8,12.2s5-.4,7.9-1.4l-1.5-6.4c-1.5,.5-3,.8-4.4,.8-3.4,0-4.6-1.7-4.6-5.4v-9.9h9.2v-6.7h-9.2v-8.7h-7.5l-.6,8.7m-7.2,0h-8.3v28.5h8.3V27.1Zm-4.1-3.7c2.8,0,4.9-1.8,4.9-4.6s-2-4.6-4.9-4.6-5,1.8-5,4.6,2.1,4.6,5,4.6m-13.7,32.5c1.5,0,3-.1,4.6-.5v-6.8c-.8,.1-1.5,.2-2,.2-2.8,0-3.7-1.1-3.7-4.6V14.2h-8.3v30.2c0,8.2,2.8,11.5,9.4,11.5m-32.6-6.1c-2.7,0-4.1-1.2-4.1-3.3s2-3.3,5-3.3,3.5,.2,5.4,.8v.4c0,3.2-2.8,5.4-6.3,5.4m14.5-12.4c0-7.5-6-10.9-13.6-10.9s-7.3,.8-11.3,2.4l1.6,6.2c2.8-1.3,5.9-2,8.5-2,3.8,0,6.6,1.1,6.6,4.6v1.4c-2.3-.8-4.6-1.1-7-1.1-6.5,0-11.4,3-11.4,9.2s4,8.9,10.2,8.9,7.9-1.7,9.8-4.4c1,4,5.8,4.7,10.4,3.8v-6.7c-2.8,.2-3.7-.5-3.7-3.2v-8.2Zm-44.5-4.4c3.4,0,6,1.7,6,5.3h-12.7c.9-3.4,3.3-5.3,6.7-5.3m13.3,5.8c0-7.4-5.3-12.3-13.4-12.3s-14.9,6-14.9,14.8,6.4,14.9,16.4,14.9,7.2-.7,10.9-2.4l-1.5-6c-2.5,1.1-5.4,1.7-8.4,1.7-5,0-8.2-1.9-9.1-5.6h19.4c.4-1.8,.6-3.4,.6-5m-35.9-12.2c-3.3,0-6.4,1.5-8.3,4.6-1.2-4.1-4.9-5.1-10.8-4.1v6.8c2.6-.2,3.7,.4,3.7,3v18.7h8.3v-14.7c0-4.7,3-6.9,6.4-6.9s3,.4,4.7,1.2l2.8-7c-2.4-1.3-4.5-1.8-6.7-1.8m-33.5,18.6l10.4-15.7v-2.4h-23.4v6.7h11.7l-2.6,3.9-10.1,15.2v2.7h24.8v-6.7h-13.3l2.5-3.7Zm-30.9-12.2c3.4,0,6,1.7,6,5.3h-12.7c.9-3.4,3.3-5.3,6.7-5.3m13.3,5.8c0-7.4-5.3-12.3-13.4-12.3s-14.9,6-14.9,14.8,6.4,14.9,16.4,14.9,7.2-.7,10.9-2.4l-1.5-6c-2.5,1.1-5.4,1.7-8.4,1.7-5,0-8.2-1.9-9.1-5.6h19.4c.4-1.8,.6-3.4,.6-5m-49.4,10.4c-1.7,0-3.1-.2-4.6-.5v-14.2c1.6-.5,3.3-.9,5.1-.9,4.9,0,7.6,2.9,7.6,7.5s-3,8.1-8,8.1m2.2-22.7c-2.4,0-4.7,.5-6.8,1.2V14.2h-8.3V54.1c3.9,1.4,8.2,2.2,12.1,2.2,10.1,0,17-5.6,17-15.1s-5.2-14.6-14-14.6"
       id="path9" />
    <path
       class="cls-3"
       d="M57.3,13.6C47.9-.3,28.5-4.1,14.1,4.9-.3,13.8-4.3,32.2,4.9,46.1c0,0,14.9,25.2,60.1,34,10.1-43.2-7.8-66.5-7.8-66.5"
       id="path11"
       style="fill:#9a9a9a;fill-opacity:1" />
    <path
       class="cls-1"
       d="M38.7,32.9c1.8-2,2.9-4.7,2.9-7.6,0-6.4-5.2-11.6-11.6-11.6s-11.6,5.2-11.6,11.6,5.2,11.6,11.6,11.6,1.4,0,2.1-.2l.7,.7-.9,3.5,4.2,.9-1.2,4.2,4.5,1.2-.9,4,3.8,.9-.7,2.4,7.5,1.9,1.4-5.2-11.6-18.2c0,0-.1-.2-.2-.2"
       id="path13" />
    <path
       class="cls-3"
       d="M29.2,19.3c2.6,0,4.7,2,4.7,4.5s-2.1,4.5-4.7,4.5-4.7-2-4.7-4.5,2.1-4.5,4.7-4.5"
       id="path15"
       style="fill:#9a9a9a;fill-opacity:1" />
  </g>
</svg>
